<svg xmlns="http://www.w3.org/2000/svg" width="28" height="28" viewBox="0 0 28 28" fill="none">
  <rect x="14" y="14" width="10" height="10" fill="#0D0D0D" opacity="0.25"/>
  <rect x="12" y="12" width="4" height="4" fill="#0D0D0D"/>
  <path d="M14 3v5M14 20v5M3 14h5M20 14h5M6.5 6.5l3.5 3.5M18 18l3.5 3.5M21.5 6.5L18 10M10 18l-3.5 3.5" stroke="#0D0D0D" stroke-width="2" stroke-linecap="square"/>
  <path d="M14 3l-2 3h4l-2-3zM14 25l-2-3h4l-2 3zM3 14l3-2v4l-3-2zM25 14l-3 2v-4l3 2z" fill="#B5CEAA" stroke="#0D0D0D" stroke-width="1"/>
</svg>
